<svg width="18" height="11" viewBox="0 0 18 11" fill="none" xmlns="http://www.w3.org/2000/svg">
<path fill-rule="evenodd" clip-rule="evenodd" d="M17.6136 10.1284C17.2675 10.3047 16.8444 10.1652 16.6691 9.8148C15.366 7.2103 12.461 5.3215 9 5.3215C5.54166 5.3215 2.63515 7.2081 1.33093 9.8148C1.15596 10.1646 0.73292 10.305 0.38639 10.1284C0.0397496 9.9517 -0.0994005 9.525 0.0755995 9.1752C0.851079 7.6252 2.08 6.3122 3.63032 5.3763L1.72707 3.45565C1.4525 3.17854 1.4525 2.72929 1.72703 2.45222C2.0016 2.17511 2.44682 2.17511 2.72143 2.45222L4.95423 4.70545C6.0066 4.26593 7.1362 4.00156 8.2969 3.92546V0.70953C8.2969 0.31766 8.6116 0 9 0C9.3883 0 9.7031 0.31766 9.7031 0.70953V3.9255C10.8638 4.0016 11.9934 4.26597 13.0457 4.70549L15.2785 2.45226C15.5532 2.17518 15.9983 2.17518 16.2729 2.45226C16.5475 2.72937 16.5475 3.17861 16.2729 3.45568L14.3697 5.3763C15.92 6.3122 17.1489 7.6252 17.9244 9.1752C18.0994 9.525 17.9603 9.9518 17.6136 10.1284ZM9 7.663C7.2554 7.663 5.83602 9.0953 5.83602 10.8559C5.83602 11 7.2554 11 9 11C10.7446 11 12 11 12.164 10.8559C12.164 9.0953 10.7446 7.663 9 7.663Z" fill="#818181"/>
</svg>
