<svg width="84" height="94" viewBox="0 0 84 94" fill="none" xmlns="http://www.w3.org/2000/svg">
<g filter="url(#filter0_d_63_1086)">
<path d="M47.3332 48.121C53.8133 48.121 59.0665 42.8678 59.0665 36.3876C59.0665 29.9075 53.8133 24.6543 47.3332 24.6543C40.853 24.6543 35.5999 29.9075 35.5999 36.3876C35.5999 42.8678 40.853 48.121 47.3332 48.121Z" fill="#EB0057"/>
<path fill-rule="evenodd" clip-rule="evenodd" d="M46.7999 68.4133V64.0293C46.7999 63.0373 47.1924 62.088 47.8943 61.3882L52.1396 57.1429C52.0351 54.8304 52.6836 52.488 54.0767 50.5168C51.9583 50.1562 49.6906 49.96 47.3332 49.96C40.2463 49.96 33.9722 51.7328 30.0767 54.3888C27.105 56.4154 25.4666 58.9904 25.4666 61.6933V64.7866C25.4666 65.7488 25.8484 66.6725 26.529 67.3509C27.2095 68.0314 28.1311 68.4133 29.0932 68.4133H46.7999Z" fill="#EB0057"/>
</g>
<path opacity="0.3" d="M57.114 50.9873C60.1529 47.9485 65.0277 47.8537 68.1794 50.7021L68.4792 50.9873C71.5181 54.0242 71.6137 58.8999 68.7644 62.0537L68.4792 62.3525C66.6058 64.226 64.0339 64.9819 61.5984 64.6162L61.3494 64.5791L61.1707 64.7568L56.2175 69.7109C56.0106 69.9178 55.7301 70.0341 55.4382 70.0342H50.533C49.9261 70.034 49.4333 69.5405 49.4333 68.9336V64.0293C49.4333 63.7738 49.5225 63.5274 49.6833 63.3311L49.7566 63.25L54.7097 58.2988L54.8884 58.1201L54.8503 57.8711C54.5074 55.5857 55.1507 53.1818 56.7761 51.3467L57.114 50.9873ZM64.7859 54.6816C63.6882 53.584 61.906 53.584 60.8083 54.6816C59.7107 55.7793 59.7107 57.5615 60.8083 58.6592C61.8375 59.6881 63.4678 59.752 64.572 58.8516L64.7859 58.6592C65.815 57.63 65.879 55.9988 64.9783 54.8945L64.7859 54.6816Z" fill="#EB0057" stroke="#54172D"/>
<defs>
<filter id="filter0_d_63_1086" x="0.866552" y="0.0542965" width="82.7999" height="92.9588" filterUnits="userSpaceOnUse" color-interpolation-filters="sRGB">
<feFlood flood-opacity="0" result="BackgroundImageFix"/>
<feColorMatrix in="SourceAlpha" type="matrix" values="0 0 0 0 0 0 0 0 0 0 0 0 0 0 0 0 0 0 127 0" result="hardAlpha"/>
<feOffset/>
<feGaussianBlur stdDeviation="12.3"/>
<feComposite in2="hardAlpha" operator="out"/>
<feColorMatrix type="matrix" values="0 0 0 0 0.921569 0 0 0 0 0.00784314 0 0 0 0 0.34902 0 0 0 0.47 0"/>
<feBlend mode="normal" in2="BackgroundImageFix" result="effect1_dropShadow_63_1086"/>
<feBlend mode="normal" in="SourceGraphic" in2="effect1_dropShadow_63_1086" result="shape"/>
</filter>
</defs>
</svg>
